{"title":"The.Wiggles.Wiggle.Bay.2002.DVDRip.XViD-SPRiNTER","uid":6914277,"size":374353629,"categoryP":"video","categoryS":"movies","magnet":"?xt=urn:btih:04f6c7bb462b981aaf4f22346f0f49b35d4b13ef&amp;dn=The.Wiggles.Wiggle.Bay.2002.DVDRip.XViD-SPRiNTER&amp;tr=udp%3A%2F%2Ftracker.openbittorrent.com%3A80&amp;tr=udp%3A%2F%2Fopen.demonii.com%3A1337&amp;tr=udp%3A%2F%2Ftracker.coppersurfer.tk%3A6969&amp;tr=udp%3A%2F%2Fexodus.desync.com%3A6969","seeders":0,"leechers":1,"uploader":"TvTeam","files":5,"time":1324971086,"description":". \n &lt;a href=&quot;\nhttp://www.torrenting.com&quot; rel=&quot;nofollow&quot; target=&quot;_NEW&quot;&gt;\nhttp://www.torrenting.com&lt;/a&gt;          :     Once &amp; For all ;)\n\n\n               www . Torrenting . Com \n\n(((((((((((((= Enjoy No RAR releases =))))))))))))))))))))\n\n\n...................................NFO:....................................\n\n.                                                     \n                                                   \n                                                         \n                                                          \n                                                           \n                                                          \n                                                          \n                                                          \n                                                           \n                                                         \n                                                          \n                                                        \n                                                      \n                                     \n                                                 \n                                                   \n                                             \n                                              \n                                                     \n                                                      \n                                                      \n                                                      \n                                                    \n                                                     \n                                                   \n                                                     \n                                                     \n                                                      \n                                                     \n                                                      \n                                                    \n                 ARTiCHOKE                        \n                                                \n                      \n                                                        \n                                                      \n                                                      \n                                               \n                                          \n                                                   \n                                            \n                                                    \n                                                       \n                                                        \n                                                      \n                                                \n                                                        \n                                                 \n                                              \n                                                  \n                                                \n                                                  \n                                        \n\n      \n                                \n      SPRiNTER proudly presents...     \n                                \n      \n \n The.Wiggles.Wiggle.Bay.2002.DVDRip.XViD-SPRiNTER\n\n Date: 2011.12\n\n &lt;a href=&quot; http://www.imdb.com/title/tt0358768/&quot; rel=&quot;nofollow&quot; target=&quot;_NEW&quot;&gt; http://www.imdb.com/title/tt0358768/&lt;/a&gt;\n\n \n\n      \n                 \n      Release notes     \n                 \n      \n\n Enjoy!\n\n\n      \n          \n       News      \n          \n      \n\n - Looking for talented xvid-encoders with time &amp; addiction :)\n - Suppliers who can provide pre-retail or retail dvds with decent upload!\n - 50Mbit+ dump providers with 1TB+ free space.\n\n contact us :)\n\n\n      \n           \n     Greetings    \n           \n      \n\n\nNTX FiCO HNR CiNEFiLE AEN HUMANiSM TASTE 0MNiDVD\n\n\n      \n           \n      Details     \n           \n      \n\nFormat                           : AVI\nFormat/Info                      : Audio Video Interleave\nFile size                        : 347 MiB\nDuration                         : 41mn 16s\nOverall bit rate mode            : Variable\nOverall bit rate                 : 1 177 Kbps\nWriting application              : Nandub v1.0rc2\nWriting library                  : Nandub build 1853/release\n\nVideo\nID                               : 0\nFormat                           : MPEG-4 Visual\nFormat profile                   : Advanced Simple@L5\nFormat settings, BVOP            : No\nFormat settings, QPel            : No\nFormat settings, GMC             : No warppoints\nFormat settings, Matrix          : Default (H.263)\nCodec ID                         : XVID\nCodec ID/Hint                    : XviD\nDuration                         : 41mn 16s\nBit rate                         : 1 021 Kbps\nWidth                            : 512 pixels\nHeight                           : 384 pixels\nDisplay aspect ratio             : 4:3\nFrame rate                       : 25.000 fps\nColor space                      : YUV\nChroma subsampling               : 4:2:0\nBit depth                        : 8 bits\nScan type                        : Progressive\nCompression mode                 : Lossy\nBits/(Pixel*Frame)               : 0.208\nStream size                      : 301 MiB (87%)\nWriting library                  : XviD 61\n\nAudio\nID                               : 1\nFormat                           : MPEG Audio\nFormat version                   : Version 1\nFormat profile                   : Layer 3\nCodec ID                         : 55\nCodec ID/Hint                    : MP3\nDuration                         : 41mn 16s\nBit rate mode                    : Variable\nBit rate                         : 143 Kbps\nChannel(s)                       : 2 channels\nSampling rate                    : 48.0 KHz\nCompression mode                 : Lossy\nStream size                      : 42.4 MiB (12%)\nAlignment                        : Aligned on interleaves\nInterleave, duration             : 24 ms (0.60 video frame)\nInterleave, preload duration     : 151 ms\nWriting library                  : LAME3.89 (alpha)","torrent":{"xt":"urn:btih:04f6c7bb462b981aaf4f22346f0f49b35d4b13ef","amp;dn":"The.Wiggles.Wiggle.Bay.2002.DVDRip.XViD-SPRiNTER","amp;tr":["udp%3A%2F%2Ftracker.openbittorrent.com%3A80","udp%3A%2F%2Fopen.demonii.com%3A1337","udp%3A%2F%2Ftracker.coppersurfer.tk%3A6969","udp%3A%2F%2Fexodus.desync.com%3A6969"],"infoHash":"04f6c7bb462b981aaf4f22346f0f49b35d4b13ef","infoHashBuffer":{"type":"Buffer","data":[4,246,199,187,70,43,152,26,175,79,34,52,111,15,73,179,93,75,19,239]},"announce":[],"urlList":[]}}